<svg xmlns="http://www.w3.org/2000/svg" width="48" height="48" id="statics">
  <path d="M24 0C10.751 0 0 10.751 0 24s10.751 24 24 24 24-10.751 24-24S37.249 0 24 0zm0 1.012c12.702 0 22.988 10.286 22.988 22.988S36.702 46.99 24 46.99 1.012 36.702 1.012 24C1.012 11.298 11.298 1.012 24 1.012zm-.5 9.974v1.004H22v.977h4v-.977h-1.5v-1.004h-1zM14 13.994v14h20v-14H14zm5.492 2h.051c.124.01.242.058.33.147l1.414 1.414c.49.47-.236 1.198-.707.707l-.473-.473a8.487 8.487 0 0 0 2.381 4.717 8.494 8.494 0 0 0 6.006 2.488c.676-.01.674 1.01-.002 1a9.49 9.49 0 0 1-6.71-2.781 9.49 9.49 0 0 1-2.706-5.568l-.617.617c-.471.49-1.198-.236-.707-.707l1.32-1.32a.5.5 0 0 1 .42-.24zm5.004 0c.282 0 .512.226.508.508v.504h.51c.676-.01.676 1.01 0 1h-.51v.48c.01.677-1.01.677-1 0v-.48h-.496c-.667.034-.718-.966-.051-1h.547v-.504a.5.5 0 0 1 .492-.508zm-7.496 4a1 1 0 1 1-.003 2 1 1 0 0 1 .003-2zm9 1a1 1 0 1 1-.003 2 1 1 0 0 1 .003-2zm4.477.979c.282 0 .512.225.507.507v.504h.508c.676-.01.676 1.01 0 1h-.508v.502c.01.677-1.01.677-1 0v-.502h-.498c-.667.033-.715-.967-.049-1h.547v-.504a.5.5 0 0 1 .493-.507zm-10.995 1.021c.283 0 .513.226.508.508v.492h.502c.676-.01.676 1.01 0 1h-.502v.492c.01.677-1.01.677-1 0v-.492h-.504c-.676.01-.676-1.01 0-1h.504v-.492a.5.5 0 0 1 .492-.508zm-2.482 6v.973h14v-.973H17zm3.293 1.979-3.625 6.277a.5.5 0 0 0 .434.75.504.504 0 0 0 .47-.313h.002l3.877-6.714h-1.158zm3.709 0v6.52c-.01.675 1.01.675 1 0v-6.52h-1zm3.756 0 3.906 6.77c.333.577 1.2.077.867-.5l-3.619-6.27h-1.154z" color="#000" font-family="sans-serif" font-weight="400" overflow="visible" style="line-height:normal;text-indent:0;text-align:start;text-decoration-line:none;text-decoration-style:solid;text-decoration-color:#000;text-transform:none;block-progression:tb;isolation:auto;mix-blend-mode:normal"></path>
</svg>
